<svg width="21" height="20" viewBox="0 0 21 20" fill="none" xmlns="http://www.w3.org/2000/svg">
<path d="M7.57379 16.104C7.57379 16.1867 7.48164 16.2529 7.36545 16.2529C7.23324 16.2653 7.14109 16.1991 7.14109 16.104C7.14109 16.0213 7.23324 15.9551 7.34943 15.9551C7.46962 15.9427 7.57379 16.0089 7.57379 16.104ZM6.32779 15.9179C6.29974 16.0006 6.37987 16.0957 6.50007 16.1205C6.60423 16.1619 6.72443 16.1205 6.74846 16.0378C6.7725 15.9551 6.69638 15.86 6.57619 15.8228C6.47202 15.7938 6.35583 15.8352 6.32779 15.9179ZM8.09863 15.8476C7.98244 15.8765 7.90231 15.9551 7.91433 16.0502C7.92635 16.1329 8.03052 16.1867 8.15071 16.1577C8.2669 16.1288 8.34703 16.0502 8.33501 15.9675C8.32299 15.8889 8.21482 15.8352 8.09863 15.8476ZM10.7349 0C5.17794 0 0.927124 4.35477 0.927124 10.0908C0.927124 14.6772 3.72361 18.6019 7.71802 19.9832C8.23084 20.0783 8.41113 19.7516 8.41113 19.4827C8.41113 19.2263 8.39911 17.812 8.39911 16.9435C8.39911 16.9435 5.59461 17.5638 5.00567 15.7111C5.00567 15.7111 4.54893 14.5076 3.89188 14.1975C3.89188 14.1975 2.97441 13.5482 3.95598 13.5606C3.95598 13.5606 4.95358 13.6433 5.50246 14.6276C6.37987 16.2239 7.85023 15.7649 8.42315 15.4919C8.5153 14.8302 8.77572 14.3712 9.06418 14.0982C6.82459 13.8418 4.56496 13.5068 4.56496 9.52839C4.56496 8.3911 4.86945 7.82039 5.51048 7.09253C5.40631 6.82372 5.06576 5.71538 5.61464 4.28447C6.45199 4.01565 8.37908 5.40107 8.37908 5.40107C9.18037 5.16948 10.0417 5.04955 10.8951 5.04955C11.7485 5.04955 12.6099 5.16948 13.4112 5.40107C13.4112 5.40107 15.3382 4.01152 16.1756 4.28447C16.7245 5.71951 16.3839 6.82372 16.2798 7.09253C16.9208 7.82453 17.3134 8.39524 17.3134 9.52839C17.3134 13.5192 14.9536 13.8377 12.714 14.0982C13.0826 14.4249 13.3951 15.0453 13.3951 16.0171C13.3951 17.4108 13.3831 19.1354 13.3831 19.4745C13.3831 19.7433 13.5674 20.07 14.0762 19.9749C18.0826 18.6019 20.799 14.6772 20.799 10.0908C20.799 4.35477 16.2918 0 10.7349 0ZM4.82137 14.2636C4.76929 14.305 4.78131 14.4001 4.84942 14.4787C4.91352 14.5449 5.00567 14.5738 5.05775 14.52C5.10983 14.4787 5.09782 14.3836 5.02971 14.305C4.9656 14.2388 4.87346 14.2099 4.82137 14.2636ZM4.38868 13.9287C4.36063 13.9824 4.4007 14.0486 4.48083 14.0899C4.54493 14.1313 4.62506 14.1189 4.6531 14.061C4.68115 14.0072 4.64108 13.9411 4.56095 13.8997C4.48083 13.8749 4.41672 13.8873 4.38868 13.9287ZM5.68676 15.4009C5.62266 15.4547 5.6467 15.5788 5.73884 15.6573C5.83099 15.7524 5.94718 15.7649 5.99926 15.6987C6.05135 15.6449 6.02731 15.5209 5.94718 15.4423C5.85904 15.3472 5.73884 15.3348 5.68676 15.4009ZM5.23003 14.793C5.16593 14.8343 5.16593 14.9419 5.23003 15.037C5.29413 15.1321 5.4023 15.1735 5.45439 15.1321C5.51849 15.0783 5.51849 14.9708 5.45439 14.8757C5.3983 14.7806 5.29413 14.7392 5.23003 14.793Z" fill="#1D9DC4"/>
</svg>
