<svg width="33" height="20" viewBox="0 0 33 20" fill="none" xmlns="http://www.w3.org/2000/svg">
<path d="M31.5089 6.60417C31.7471 6.44271 32.1014 6.59375 32.1014 6.84896V17.5C32.1014 18.8802 30.7881 20 29.1693 20H3.75778C2.13902 20 0.825684 18.8802 0.825684 17.5V6.85417C0.825684 6.59375 1.17387 6.44792 1.41821 6.60937C2.78652 7.51562 4.60076 8.66667 10.8315 12.526C12.1204 13.3281 14.295 15.0156 16.4635 15.0052C18.6443 15.0208 20.8617 13.2969 22.1017 12.526C28.3324 8.66667 30.1406 7.51042 31.5089 6.60417ZM16.4635 13.3333C17.8807 13.3542 19.921 11.8125 20.9472 11.1771C29.0532 6.16146 29.6702 5.72396 31.5394 4.47396C31.8937 4.23958 32.1014 3.875 32.1014 3.48958V2.5C32.1014 1.11979 30.7881 0 29.1693 0H3.75778C2.13902 0 0.825684 1.11979 0.825684 2.5V3.48958C0.825684 3.875 1.03337 4.23437 1.38767 4.47396C3.25688 5.71875 3.87384 6.16146 11.9799 11.1771C13.0061 11.8125 15.0464 13.3542 16.4635 13.3333Z" fill="#1D9DC4"/>
</svg>
