<svg width="20" height="20" viewBox="0 0 20 20" fill="none" xmlns="http://www.w3.org/2000/svg">
<path d="M18.6162 0H2.00439C1.24321 0 0.624756 0.647322 0.624756 1.44196V18.558C0.624756 19.3527 1.24321 20 2.00439 20H18.6162C19.3774 20 20.0001 19.3527 20.0001 18.558V1.44196C20.0001 0.647322 19.3774 0 18.6162 0ZM6.48062 17.1429H3.60891V7.59821H6.48494V17.1429H6.48062ZM5.04477 6.29464C4.12357 6.29464 3.37969 5.52232 3.37969 4.57589C3.37969 3.62946 4.12357 2.85714 5.04477 2.85714C5.96164 2.85714 6.70984 3.62946 6.70984 4.57589C6.70984 5.52679 5.96596 6.29464 5.04477 6.29464ZM17.2452 17.1429H14.3735V12.5C14.3735 11.3929 14.3519 9.96875 12.8814 9.96875C11.385 9.96875 11.1558 11.1741 11.1558 12.4196V17.1429H8.28409V7.59821H11.039V8.90179H11.0779C11.4629 8.15179 12.4014 7.36161 13.7983 7.36161C16.7046 7.36161 17.2452 9.33929 17.2452 11.9107V17.1429Z" fill="#1D9DC4"/>
</svg>
